<?xml version="1.0" encoding="UTF-8"?>
<svg version="1.1" xmlns="http://www.w3.org/2000/svg" width="1563" height="1563">
<path d="M0 0 C17.70201415 -0.51912065 35.33463757 3.67136342 49.05859375 15.37890625 C63.31734757 28.99051542 69.70981393 45.9530725 72.453125 65.15625 C72.453125 73.07625 72.453125 80.99625 72.453125 89.15625 C34.173125 89.15625 -4.106875 89.15625 -43.546875 89.15625 C-40.17738608 108.25002053 -36.44899785 121.3292234 -20.69921875 132.73828125 C-10.32587185 139.57226478 1.32776216 141.21874378 13.44921875 138.9140625 C24.56275968 136.11038637 33.82848196 129.52538801 40.453125 120.15625 C41.773125 117.51625 43.093125 114.87625 44.453125 112.15625 C53.033125 112.15625 61.613125 112.15625 70.453125 112.15625 C68.51148765 123.80607411 62.28813742 133.49093761 54.453125 142.15625 C53.81503906 142.87554688 53.17695312 143.59484375 52.51953125 144.3359375 C39.4120456 158.3137391 21.29932739 162.86633388 2.703125 163.53125 C-16.67460666 163.2254008 -34.95101416 156.11675078 -48.546875 142.15625 C-66.15183076 121.72729109 -71.07965551 96.41985456 -69.546875 70.15625 C-69.03299251 65.03320222 -67.91519847 60.11642258 -66.546875 55.15625 C-66.2065625 53.90457031 -65.86625 52.65289063 -65.515625 51.36328125 C-60.32766233 33.60631018 -49.09823968 18.40691081 -33.25 8.7578125 C-22.98472593 3.2226157 -11.58089494 0.51017158 0 0 Z M-27.546875 32.15625 C-27.546875 32.81625 -27.546875 33.47625 -27.546875 34.15625 C-28.206875 34.15625 -28.866875 34.15625 -29.546875 34.15625 C-37.65644099 44.66273205 -42.546875 56.85252371 -42.546875 70.15625 C-13.176875 70.15625 16.193125 70.15625 46.453125 70.15625 C46.453125 56.82217829 44.15798866 44.03237326 35.26171875 33.58203125 C25.61257738 24.21167727 14.43447069 20.89946125 1.25732422 20.9074707 C-9.47891432 21.08862355 -19.33401758 25.23240608 -27.546875 32.15625 Z " fill="#4D0011" transform="translate(1042.546875,694.84375)"/>
<path d="M0 0 C16.82577964 14.34245674 23.40143114 33.65313538 25.59375 55.2109375 C25.59375 61.8109375 25.59375 68.4109375 25.59375 75.2109375 C-12.68625 75.2109375 -50.96625 75.2109375 -90.40625 75.2109375 C-87.99178306 92.11220609 -84.40245411 106.33105115 -70.83984375 117.4921875 C-60.86873195 124.53438524 -49.26101209 127.30787842 -37.1784668 125.52246094 C-30.24689997 124.27885391 -24.13093544 122.42127729 -18.40625 118.2109375 C-17.36404297 117.45490234 -17.36404297 117.45490234 -16.30078125 116.68359375 C-10.85415735 112.34060096 -7.7261176 107.25859441 -4.40625 101.2109375 C-3.41625 99.7259375 -3.41625 99.7259375 -2.40625 98.2109375 C0.20751953 97.87036133 0.20751953 97.87036133 3.4765625 97.91796875 C4.64316406 97.92763672 5.80976562 97.93730469 7.01171875 97.94726562 C8.23503906 97.97240234 9.45835937 97.99753906 10.71875 98.0234375 C12.56533203 98.04374023 12.56533203 98.04374023 14.44921875 98.06445312 C17.49782843 98.09990207 20.545575 98.14931671 23.59375 98.2109375 C18.74452723 115.42451923 8.86176443 130.79541235 -6.734375 140.22265625 C-25.55346902 150.42080046 -46.90207477 151.5788845 -67.40625 146.2109375 C-84.7936146 140.85181827 -98.61517633 127.54763526 -107.03125 111.7109375 C-118.24719091 88.44543844 -120.26601012 60.39835261 -112.3046875 35.80859375 C-107.97995613 23.85280414 -102.40488613 14.22457136 -93.40625 5.2109375 C-92.6946875 4.48777344 -91.983125 3.76460937 -91.25 3.01953125 C-85.61327628 -2.36190606 -79.50769507 -5.66442667 -72.40625 -8.7890625 C-71.72949219 -9.10746094 -71.05273438 -9.42585937 -70.35546875 -9.75390625 C-48.26527127 -19.26167861 -18.62256544 -14.39502903 0 0 Z M-76.66015625 20.60546875 C-85.65920502 31.39438358 -89.40625 42.08913572 -89.40625 56.2109375 C-60.03625 56.2109375 -30.66625 56.2109375 -0.40625 56.2109375 C-1.56704251 41.12063485 -3.72183129 27.30897629 -15.03125 16.3984375 C-32.91398052 1.85152402 -61.04038553 4.01115428 -76.66015625 20.60546875 Z " fill="#4D0011" transform="translate(803.40625,708.7890625)"/>
<path d="M0 0 C-7 25 -14 50 -21 75 C-20.42354736 74.09378906 -19.84709473 73.18757812 -19.25317383 72.25390625 C20.21099219 10.4070551 20.21099219 10.4070551 51.85546875 0.4140625 C57.94305892 -0.76131921 64.60613323 -0.76945718 70.5 1.125 C75.61268511 4.95951383 78.30571705 8.89305124 80 15 C81.62822735 30.52102436 76.64552204 46.07337935 72.25390625 60.78515625 C71.79621442 62.34039511 71.3392762 63.89585592 70.88304138 65.45152283 C69.69289244 69.50328597 68.49383438 73.55235236 67.2923584 77.60076904 C65.3717751 84.07868226 63.46616895 90.56102356 61.55851555 97.04275322 C60.90071778 99.27368219 60.2397304 101.50364311 59.57801819 103.7334137 C57.56536859 110.52930773 55.58880059 117.33525833 53.71069336 124.16967773 C53.38636826 125.34271957 53.06204315 126.51576141 52.72789001 127.72434998 C51.73391256 132.19744649 51.61442882 136.44811798 52 141 C58.28282364 139.72292695 58.28282364 139.72292695 64 137 C64.33 136.01 64.66 135.02 65 134 C66.09153769 132.87435176 67.19070041 131.75523766 68.32421875 130.671875 C72.05607417 126.94871855 75.49356186 122.93423887 79 119 C81 120 83 121 85 122 C83.46362478 127.00991918 80.46598024 130.33694 77.0625 134.1875 C76.48129395 134.84878906 75.90008789 135.51007813 75.30126953 136.19140625 C65.75440969 146.90264436 54.01319331 159.62213247 39.0078125 161.2109375 C34.21699554 161.44595871 30.91410933 160.75766793 27 158 C22.44993608 152.73150494 22.25839346 147.4662375 22.52661133 140.64331055 C22.92684235 135.66091226 24.09334226 131.00406966 25.40234375 126.19140625 C25.66219559 125.21615494 25.92204742 124.24090363 26.18977356 123.23609924 C30.74291993 106.32634436 35.69060271 89.52112051 40.55834961 72.69995117 C41.67805488 68.8296011 42.79304037 64.9579148 43.90535927 61.08543587 C44.3225043 59.63674065 44.74140868 58.18855058 45.16228294 56.74093437 C51.65421123 39.20904257 51.65421123 39.20904257 50 22 C47.93325381 20.13913082 47.93325381 20.13913082 45 20 C36.20413132 22.12314072 28.66934985 28.08530859 22.4375 34.5 C21.633125 35.325 20.82875 36.15 20 37 C19.34 37 18.68 37 18 37 C17.67 37.99 17.34 38.98 17 40 C15.8662578 41.16809802 14.7260596 42.33045059 13.55859375 43.46484375 C-16.96610176 73.53052128 -32.14258594 112.17567176 -43.26318359 152.52001953 C-44 155 -44 155 -45 157 C-53.91 157 -62.82 157 -72 157 C-71.37546258 152.62823809 -70.83057596 148.97084891 -69.64039612 144.8351593 C-69.36424469 143.8668367 -69.08809326 142.8985141 -68.80357361 141.90084839 C-68.3508181 140.33984909 -68.3508181 140.33984909 -67.88891602 138.74731445 C-67.57011475 137.63415359 -67.25131348 136.52099274 -66.92285156 135.37409973 C-66.23189338 132.9634702 -65.53884367 130.5534394 -64.84393501 128.14394569 C-63.74230643 124.32304834 -62.64664507 120.50046882 -61.55296326 116.67729187 C-58.83466611 107.17918723 -56.10754701 97.68361899 -53.37658691 88.18914795 C-51.25457193 80.81159263 -49.13550417 73.43322016 -47.02559417 66.05219239 C-46.1183729 62.87951044 -45.20771945 59.707876 -44.29236031 56.5375309 C-43.26904817 52.99326894 -42.25394576 49.44674579 -41.24047852 45.8996582 C-40.94066574 44.86911316 -40.64085297 43.83856812 -40.33195496 42.77679443 C-38.90319494 37.74529078 -37.63591176 32.69855304 -36.60997009 27.56877136 C-36.41878066 26.620405 -36.22759123 25.67203863 -36.03060818 24.69493389 C-35.99184411 21.28190496 -36.97327168 19.69859283 -39 17 C-41.29308963 15.85345518 -42.79909656 15.80270883 -45.3515625 15.68359375 C-46.20234375 15.64169922 -47.053125 15.59980469 -47.9296875 15.55664062 C-48.81914062 15.51732422 -49.70859375 15.47800781 -50.625 15.4375 C-51.5221875 15.39431641 -52.419375 15.35113281 -53.34375 15.30664062 C-55.56234283 15.20043139 -57.7810488 15.09838806 -60 15 C-60 13.02 -60 11.04 -60 9 C-54.55132197 7.32805933 -49.13259365 6.21920402 -43.515625 5.2734375 C-42.61938416 5.12089508 -41.72314331 4.96835266 -40.79974365 4.81118774 C-38.91080453 4.49143678 -37.02149299 4.17387891 -35.13183594 3.85839844 C-32.27109993 3.3785393 -29.41296463 2.88489132 -26.5546875 2.390625 C-24.70847653 2.07987721 -22.86212639 1.7699549 -21.015625 1.4609375 C-20.17565979 1.31409515 -19.33569458 1.16725281 -18.47027588 1.01596069 C-12.2793811 0.00346681 -6.26655496 -0.15668715 0 0 Z " fill="#4D0011" transform="translate(494,697)"/>
<path d="M0 0 C12.53618297 12.2837766 19.06624308 26.76109823 22.5 43.6875 C22.5 44.3475 22.5 45.0075 22.5 45.6875 C13.92 45.6875 5.34 45.6875 -3.5 45.6875 C-4.20125 43.398125 -4.9025 41.10875 -5.625 38.75 C-8.48049874 29.91741021 -12.51173464 22.9590202 -19.5 16.6875 C-20.6446875 15.635625 -20.6446875 15.635625 -21.8125 14.5625 C-32.00491456 7.4515131 -45.43674445 6.82617731 -57.3125 8.93359375 C-67.71273301 11.39345278 -76.24506137 16.88307827 -82.25 25.8125 C-93.16481139 44.29930351 -95.76607478 66.7671297 -90.47265625 87.546875 C-86.24635328 101.19325085 -79.52479485 113.02596388 -66.5625 119.9375 C-60.0722527 123.18975579 -53.27432222 124.05723382 -46.125 124 C-45.38185547 123.99436035 -44.63871094 123.9887207 -43.87304688 123.98291016 C-34.52183847 123.77705313 -27.8728496 121.44328783 -20.3125 115.89453125 C-18.5 114.6875 -18.5 114.6875 -16.5 114.6875 C-16.22800781 114.10613281 -15.95601562 113.52476562 -15.67578125 112.92578125 C-14.51339003 110.71298999 -13.18193493 108.87415174 -11.6875 106.875 C-7.44156829 100.65737028 -5.69075624 93.83967477 -3.5 86.6875 C5.08 86.6875 13.66 86.6875 22.5 86.6875 C18.52955495 107.5845792 10.25827884 124.95503634 -7.23828125 137.609375 C-23.66028629 148.07225726 -45.19948591 150.00198984 -63.875 145.9375 C-70.08107338 144.47835323 -75.89621264 142.79215233 -81.5 139.6875 C-82.26957031 139.30335938 -83.03914063 138.91921875 -83.83203125 138.5234375 C-100.52201808 129.53449971 -110.82374053 113.34847914 -116.5 95.6875 C-118.74238633 87.45959998 -120.08401728 79.20214628 -120.5 70.6875 C-120.54125 69.91535156 -120.5825 69.14320313 -120.625 68.34765625 C-121.24479669 45.06654303 -114.30293014 22.04625843 -98.5078125 4.69921875 C-73.73303563 -20.97601661 -27.13739109 -23.11242636 0 0 Z " fill="#4D0011" transform="translate(1241.5,710.3125)"/>
<path d="M0 0 C8.58 0 17.16 0 26 0 C26 16.83 26 33.66 26 51 C38.21 51 50.42 51 63 51 C63 57.93 63 64.86 63 72 C50.79 72 38.58 72 26 72 C26.08554199 85.30873471 26.17931352 98.61734184 26.28752708 111.9259119 C26.33744826 118.10577721 26.38377886 124.28562576 26.421875 130.46557617 C26.45878031 136.43084257 26.50515488 142.39596742 26.55806351 148.36111259 C26.57657951 150.63561963 26.59169775 152.91015697 26.60334396 155.18470955 C26.62025399 158.37336815 26.64930111 161.56170457 26.68115234 164.75024414 C26.68331253 165.68820328 26.68547272 166.62616241 26.68769836 167.59254456 C26.75388767 172.78809185 27.31621892 177.07919255 29 182 C29.33 182.99 29.66 183.98 30 185 C40.17199486 190.08599743 52.14868318 188.02130041 63 187 C63 193.27 63 199.54 63 206 C46.67806615 210.08048346 26.42913058 212.06026123 11.15625 203.53125 C3.96174873 198.42211141 1.67463873 191.3653876 0 183 C-0.36792819 179.17759092 -0.38203609 175.39948126 -0.34057617 171.56176758 C-0.34123329 169.93538864 -0.34123329 169.93538864 -0.34190369 168.27615356 C-0.33983228 164.73208908 -0.31657919 161.18851196 -0.29296875 157.64453125 C-0.28736694 155.17160806 -0.28309961 152.69868151 -0.28010559 150.22575378 C-0.26870297 143.74684302 -0.23927532 137.26813703 -0.20599365 130.78930664 C-0.17519374 124.16620656 -0.1615791 117.54307308 -0.14648438 110.91992188 C-0.11440111 97.94651057 -0.06167071 84.97330443 0 72 C-9.57 72 -19.14 72 -29 72 C-29 65.07 -29 58.14 -29 51 C-19.43 51 -9.86 51 0 51 C0 34.17 0 17.34 0 0 Z " fill="#4D0011" transform="translate(618,648)"/>
<path d="M0 0 C8.58 0 17.16 0 26 0 C26 16.83 26 33.66 26 51 C38.21 51 50.42 51 63 51 C63 57.93 63 64.86 63 72 C50.79 72 38.58 72 26 72 C26.08562012 84.88304406 26.17943196 97.7659578 26.28752708 110.64883327 C26.33739938 116.63134393 26.3837302 122.61383771 26.421875 128.59643555 C26.45884232 134.37368124 26.50523326 140.15078249 26.55806351 145.92790413 C26.5765467 148.12818929 26.59167689 150.32850534 26.60334396 152.5288372 C26.62031057 155.61890215 26.64937051 158.70864066 26.68115234 161.79858398 C26.68331253 162.70130035 26.68547272 163.60401672 26.68769836 164.53408813 C26.77645924 171.32255385 27.25468851 177.96186519 30.6875 183.9375 C36.38130112 189.01575506 43.81868367 188.32727353 51 188 C55.00867213 187.72625966 58.99894814 187.37656959 63 187 C63 193.27 63 199.54 63 206 C47.81022036 209.79744491 28.55507918 212.179965 14.0625 204.8125 C7.17729981 200.49187897 3.04038065 194.85326366 1 187 C-0.1919493 181.42831799 -0.13395066 175.98082795 -0.11352539 170.31298828 C-0.11367142 169.24897293 -0.11381744 168.18495758 -0.1139679 167.08869934 C-0.11327294 163.58254944 -0.10550005 160.07645309 -0.09765625 156.5703125 C-0.09579059 154.13508127 -0.09436738 151.69984966 -0.09336853 149.26461792 C-0.08955502 142.86298583 -0.07973467 136.46137652 -0.06866455 130.05975342 C-0.05842537 123.52421375 -0.05386554 116.98867039 -0.04882812 110.453125 C-0.03811137 97.63540506 -0.02052399 84.81770799 0 72 C-9.57 72 -19.14 72 -29 72 C-29 65.07 -29 58.14 -29 51 C-19.43 51 -9.86 51 0 51 C0 34.17 0 17.34 0 0 Z " fill="#4D0011" transform="translate(1291,648)"/>
<path d="M0 0 C4.31248609 -0.02886537 8.62494762 -0.04675255 12.9375 -0.0625 C14.16919922 -0.07087891 15.40089844 -0.07925781 16.66992188 -0.08789062 C17.83974609 -0.09111328 19.00957031 -0.09433594 20.21484375 -0.09765625 C21.84087524 -0.10551147 21.84087524 -0.10551147 23.49975586 -0.11352539 C26 0 26 0 27 1 C27.10344093 3.45269743 27.14159116 5.87756733 27.13803101 8.33097839 C27.14085229 9.10755792 27.14367357 9.88413746 27.14658034 10.6842497 C27.15496489 13.30668091 27.15626788 15.92907012 27.15771484 18.55151367 C27.16238032 20.42367676 27.16752343 22.29583871 27.17311096 24.16799927 C27.18441417 28.21025169 27.19283766 32.25249663 27.19923019 36.29475975 C27.20988632 42.68565514 27.23012537 49.07649712 27.25234985 55.46736145 C27.3143524 73.64431306 27.36828122 91.82126212 27.40136719 109.99829102 C27.41970606 120.02919369 27.44863484 130.06000753 27.4893719 140.09084493 C27.51045818 145.40184049 27.52590143 150.71272402 27.52817917 156.02376366 C27.53032495 161.02160098 27.54618735 166.01920523 27.57256889 171.01697159 C27.57976661 172.85114189 27.58186057 174.68534043 27.57846642 176.51952171 C27.57457134 179.02465828 27.58902726 181.52905065 27.60800171 184.03410339 C27.60247201 184.75911535 27.59694232 185.48412731 27.59124506 186.23110932 C27.65196056 190.87866275 28.53596255 194.05997773 31 198 C37.35323549 203.11021115 43.03002409 203.14664695 50.8125 203.0625 C53.514375 203.041875 56.21625 203.02125 59 203 C59 209.27 59 215.54 59 222 C44.95121045 226.68292985 26.39311913 225.00381203 13 219 C6.44046339 214.8812212 3.23357314 208.77573886 1.37284851 201.42012024 C-0.5688344 192.54127022 -0.39712879 183.75563909 -0.34057617 174.71557617 C-0.33972835 172.80235304 -0.34020806 170.88912894 -0.34190369 168.97590637 C-0.34275902 163.81972872 -0.32520864 158.66376348 -0.30418181 153.50763488 C-0.2853374 148.10514279 -0.28365848 142.70264501 -0.28010559 137.30012512 C-0.27080784 127.08654649 -0.24622495 116.87306502 -0.21605712 106.65952903 C-0.18244222 95.02463797 -0.16600932 83.38974209 -0.15097082 71.75481451 C-0.11967325 47.83648929 -0.06695717 23.91825011 0 0 Z " fill="#4D0011" transform="translate(912,633)"/>
<path d="M0 0 C4.31248609 -0.02886537 8.62494762 -0.04675255 12.9375 -0.0625 C14.16919922 -0.07087891 15.40089844 -0.07925781 16.66992188 -0.08789062 C17.83974609 -0.09111328 19.00957031 -0.09433594 20.21484375 -0.09765625 C21.84087524 -0.10551147 21.84087524 -0.10551147 23.49975586 -0.11352539 C26 0 26 0 27 1 C27.09483206 3.21705052 27.11740912 5.43719089 27.11352539 7.65626526 C27.11367425 8.36045229 27.11382311 9.06463933 27.11397648 9.79016536 C27.11327776 12.168164 27.10541596 14.54608694 27.09765625 16.92407227 C27.09573838 18.62237505 27.09427397 20.32067839 27.0932312 22.01898193 C27.09006053 25.68798926 27.08377676 29.35697381 27.07516479 33.02597237 C27.06166308 38.83989924 27.05575133 44.65381846 27.05102539 50.46775818 C27.03895944 63.87955816 27.0170168 77.29133865 26.99479675 90.703125 C26.97457184 102.95357702 26.95649168 115.20402199 26.94658184 127.45448726 C26.94163005 133.21961267 26.93181402 138.98470216 26.91815186 144.7498132 C26.91062071 148.36264739 26.90736217 151.97547686 26.9051857 155.58831787 C26.9033343 157.24737274 26.89977572 158.90642685 26.89425278 160.56547356 C26.86828563 168.62962159 26.9338651 176.68534905 27.31860352 184.74156189 C27.37573013 185.99574889 27.43285675 187.24993589 27.49171448 188.54212856 C28.25934526 193.76432837 29.75405295 196.9978252 33.875 200.3125 C39.41460915 203.30388894 44.67148856 203.12889884 50.8125 203.0625 C53.514375 203.041875 56.21625 203.02125 59 203 C59 209.27 59 215.54 59 222 C44.95121045 226.68292985 26.39311913 225.00381203 13 219 C6.44046339 214.8812212 3.23357314 208.77573886 1.37284851 201.42012024 C-0.5688344 192.54127022 -0.39712879 183.75563909 -0.34057617 174.71557617 C-0.33972835 172.80235304 -0.34020806 170.88912894 -0.34190369 168.97590637 C-0.34275902 163.81972872 -0.32520864 158.66376348 -0.30418181 153.50763488 C-0.2853374 148.10514279 -0.28365848 142.70264501 -0.28010559 137.30012512 C-0.27080784 127.08654649 -0.24622495 116.87306502 -0.21605712 106.65952903 C-0.18244222 95.02463797 -0.16600932 83.38974209 -0.15097082 71.75481451 C-0.11967325 47.83648929 -0.06695717 23.91825011 0 0 Z " fill="#4D0011" transform="translate(843,633)"/>
<path d="M0 0 C13.55059178 39.26339505 13.00127179 81.958536 15 123 C16.7290233 120.80949969 18.45667683 118.61794126 20.18359375 116.42578125 C20.66582397 115.81512817 21.1480542 115.2044751 21.64489746 114.57531738 C37.40770058 94.55265475 61.11265717 63.91570674 60 37 C58.50093765 30.78959885 55.18415835 28.18693725 50.15625 24.67578125 C47.1612821 22.34817033 45.30924711 20.43116684 44.49609375 16.66796875 C44.35733529 10.79386049 45.21982623 7.65796032 49.296875 3.375 C54.19178461 -0.57685363 58.90880235 -0.63491311 65 0 C70.22594796 2.20651136 73.86060996 6.15340235 76.8125 10.9375 C82.07277093 24.76449788 75.504776 41.29337974 70 54 C54.8468993 86.8541423 33.07421285 116.46711391 9.6484375 143.87890625 C6.32007323 147.7815048 3.09642101 151.76656661 -0.125 155.7578125 C-1.053125 156.86769531 -1.053125 156.86769531 -2 158 C-2.433125 158.59554687 -2.86625 159.19109375 -3.3125 159.8046875 C-6.00182226 161.7096241 -8.79750166 161.07048076 -12 161 C-12.00586624 160.35997543 -12.01173248 159.71995087 -12.01777649 159.06053162 C-12.32119776 127.28753892 -12.74633708 95.63349124 -16 64 C-16.12133301 62.80938965 -16.24266602 61.6187793 -16.36767578 60.39208984 C-18.06832321 37.34615177 -18.06832321 37.34615177 -28.375 17.6875 C-33.58071332 14.34097001 -39.00769344 14.88250379 -45 15 C-45 12.69 -45 10.38 -45 8 C-39.2351549 6.8558555 -33.46936247 5.7166589 -27.70263672 4.58203125 C-25.74110536 4.19536921 -23.7798395 3.80735777 -21.81884766 3.41796875 C-18.99971165 2.85842378 -16.1796557 2.30374256 -13.359375 1.75 C-12.48319519 1.57500977 -11.60701538 1.40001953 -10.70428467 1.21972656 C-9.88373596 1.05956055 -9.06318726 0.89939453 -8.21777344 0.734375 C-7.49829529 0.59225586 -6.77881714 0.45013672 -6.03753662 0.30371094 C-4 0 -4 0 0 0 Z " fill="#4D0011" transform="translate(269,697)"/>
<path d="M0 0 C-1.27745704 6.98383851 -2.97030565 13.74406274 -4.9921875 20.546875 C-5.29053497 21.56428772 -5.58888245 22.58170044 -5.89627075 23.62994385 C-6.5453626 25.84282389 -7.19621303 28.05518869 -7.84863281 30.26708984 C-9.63710872 36.33616627 -11.4069777 42.41067862 -13.1796875 48.484375 C-13.56310422 49.7970048 -13.94654778 51.10962677 -14.33001709 52.42224121 C-18.56304306 66.91440634 -22.78217495 81.41055981 -26.95879173 95.91909409 C-28.0889158 99.84430607 -29.22237735 103.76848013 -30.36419678 107.69030762 C-31.44634709 111.40745088 -32.51961486 115.12704605 -33.5862999 118.8486557 C-33.9820354 120.22362195 -34.38093282 121.59768273 -34.78323746 122.97074127 C-35.33681662 124.86209306 -35.87766812 126.75715598 -36.41796875 128.65234375 C-36.87852661 130.24550415 -36.87852661 130.24550415 -37.34838867 131.87084961 C-38.0666709 135.32016521 -38.11195356 138.48631694 -38 142 C-32.18271152 142.74263257 -29.05262835 141.3785169 -24.33203125 137.96875 C-17.56882849 132.25911149 -12.11596572 125.18241461 -7 118 C-5.02 119.32 -3.04 120.64 -1 122 C-9.41790886 138.46982169 -25.06944666 153.82129059 -42.79296875 159.96875 C-48.6992793 161.36062473 -55.28299037 161.91819983 -60.82421875 159.05859375 C-64.02147094 156.71290994 -66.02869219 154.06143512 -66.8046875 150.1484375 C-67.63299971 141.03700321 -65.57159787 132.91197478 -63.07421875 124.23046875 C-62.76957703 123.15722855 -62.4649353 122.08398834 -62.15106201 120.97822571 C-61.10825638 117.31662407 -60.05602945 113.65780336 -59 110 C-58.8083086 109.33570984 -58.6166172 108.67141968 -58.41911697 107.98699951 C-54.76284329 95.32250273 -51.07673751 82.66666145 -47.38671875 70.01196289 C-46.27446119 66.19707258 -45.16443387 62.38153879 -44.05570221 58.56562233 C-43.64038216 57.13787938 -43.22422913 55.71037841 -42.80715179 54.28314781 C-36.87468089 37.84363652 -36.87468089 37.84363652 -37 21 C-39.042169 18.21266085 -40.59122367 16.26793987 -44.09619141 15.60131836 C-46.52017225 15.50808833 -48.89009475 15.56322507 -51.3125 15.6875 C-52.56643555 15.72133789 -52.56643555 15.72133789 -53.84570312 15.75585938 C-55.89791149 15.8144939 -57.94919202 15.90416785 -60 16 C-59.67 14.02 -59.34 12.04 -59 10 C-49.68849603 7.51116306 -40.29923553 5.58283745 -30.8359375 3.78295898 C-28.37054426 3.31164819 -25.9080327 2.82685589 -23.4453125 2.34179688 C-15.53086544 0.81412732 -8.10173371 -0.43548873 0 0 Z " fill="#4D0011" transform="translate(423,697)"/>
<path d="M0 0 C5.04959469 2.92047454 8.72492538 6.37289831 10.28125 12.1875 C11.18873898 17.68915193 10.62825564 22.27527474 7.71875 27.0859375 C3.55648592 31.7848832 -0.93395877 33.8550564 -7.09375 34.4609375 C-12.99325384 34.29365478 -17.53653164 31.83065586 -21.65625 27.7109375 C-25.01501517 22.28523992 -25.75188522 17.82492909 -24.94921875 11.5546875 C-23.50806036 6.22830094 -19.90719414 3.23148905 -15.53125 0.1484375 C-10.28018243 -1.56825767 -5.22501057 -2.093583 0 0 Z " fill="#4D0011" transform="translate(427.28125,629.9140625)"/>
</svg>
